:SAMPLES-PER-SECOND 30
:FULLY-SPECIFIED
:DEGREES
798
root  -1.21257 40.2623 11.4879 176.067 2.57121 -178.548
RightUpLeg  4.83852 -4.3179 1.47543
RightLeg  7.03655 10.4091 -0.167554
RightFoot  -6.40446 0.0342468 -1.79977
RightToes  -5.8209e-011 0 -3.6325e-017
Spine  -5.10552 -1.33533 -6.4907
Spine1  18.327 -4.21946 9.88854
HEad  -5.73935 10.444 -4.10368
LeftShoulder1  5.27708 -11.2248 -29.8093
LeftArm  15.3791 23.4086 -36.8501
LeftForeArm  -4.6226 -41.8424 -10.3108
LeftHand  -0.246645 0.021 5.37786
RightShoulder  5.93534 12.2068 31.8456
RightArm  6.5089 -20.0492 34.3475
RightForeArm  6.15359 22.2331 4.75796
RightHand  -0.24729 -0.0210522 -5.37781
LeftUpLeg  3.31795 11.896 12.0145
LeftLeg  7.83601 2.94606 -1.32451
LeftFoot  -3.12618 0.555781 -7.47157
LeftToes  -7.45818e-011 -3.37383e-011 1.08613e-011
799
root  -0.886013 40.1909 11.5346 175.893 2.34047 -178.207
RightUpLeg  4.713 -4.29152 2.26702
RightLeg  7.67576 9.9658 0.177877
RightFoot  -6.6953 0.0516371 -2.38906
RightToes  -5.8209e-011 0 -3.6325e-017
Spine  -5.06601 -1.24489 -5.55994
Spine1  18.5841 -4.0189 9.5958
HEad  -6.04566 10.5038 -4.16453
LeftShoulder1  5.28876 -11.231 -29.8743
LeftArm  15.0749 22.8304 -36.8187
LeftForeArm  -4.89212 -41.1295 -10.076
LeftHand  -0.246645 0.021 5.37786
RightShoulder  5.94841 12.2437 31.8397
RightArm  6.45891 -19.3963 34.7593
RightForeArm  6.40407 22.7661 4.68535
RightHand  -0.24729 -0.0210522 -5.37781
LeftUpLeg  2.67419 12.9744 12.9454
LeftLeg  9.26548 1.36484 -1.03943
LeftFoot  -3.46398 0.560478 -7.83204
LeftToes  -7.45818e-011 -3.37383e-011 1.08613e-011
800
root  -0.577499 40.1065 11.5953 175.725 2.097 -177.795
RightUpLeg  4.51836 -4.22058 3.12342
RightLeg  8.37428 9.45193 0.499398
RightFoot  -7.01568 0.0624643 -2.90962
RightToes  -5.8209e-011 0 -3.6325e-017
Spine  -4.99751 -1.12387 -4.43568
Spine1  18.8349 -3.75599 9.20469
HEad  -6.29327 10.4337 -4.13937
LeftShoulder1  5.31106 -11.2687 -29.9348
LeftArm  14.88 22.0319 -36.7877
LeftForeArm  -5.42648 -40.234 -9.80104
LeftHand  -0.246645 0.021 5.37786
RightShoulder  5.9652 12.2804 31.858
RightArm  6.46976 -18.6751 34.9678
RightForeArm  6.70893 23.2642 4.67049
RightHand  -0.24729 -0.0210522 -5.37781
LeftUpLeg  1.93533 13.9017 13.8746
LeftLeg  10.7924 -0.198113 -0.772795
LeftFoot  -3.90628 0.562618 -8.29073
LeftToes  -7.45818e-011 -3.37383e-011 1.08613e-011
801
root  -0.286684 40.0106 11.6719 175.5 1.7397 -177.323
RightUpLeg  4.35116 -4.12431 4.03382
RightLeg  9.07101 8.80621 0.772968
RightFoot  -7.35123 0.0679827 -3.37644
RightToes  -5.8209e-011 0 -3.6325e-017
Spine  -4.72983 -1.02973 -3.24214
Spine1  18.9733 -3.51403 8.8065
HEad  -6.44147 10.3389 -4.09794
LeftShoulder1  5.31845 -11.2952 -29.9199
LeftArm  14.6282 21.1059 -36.9085
LeftForeArm  -6.21046 -39.2358 -9.51419
LeftHand  -0.246645 0.021 5.37786
RightShoulder  5.97709 12.3081 31.8668
RightArm  6.46172 -17.9402 35.0161
RightForeArm  7.04486 23.7718 4.71753
RightHand  -0.24729 -0.0210522 -5.37781
LeftUpLeg  1.15401 14.2682 14.7575
LeftLeg  12.3348 -1.30843 -0.515714
LeftFoot  -4.36435 0.56008 -8.7465
LeftToes  -7.45818e-011 -3.37383e-011 1.08613e-011
802
root  -0.00811447 39.9184 11.7577 175.225 1.25261 -176.854
RightUpLeg  4.27476 -4.05618 4.91023
RightLeg  9.62471 8.0757 1.02432
RightFoot  -7.61584 0.0726016 -3.81178
RightToes  -5.8209e-011 0 -3.6325e-017
Spine  -4.29025 -1.0016 -2.15266
Spine1  18.9986 -3.36044 8.47232
HEad  -6.58047 10.3939 -4.15193
LeftShoulder1  5.32719 -11.3245 -29.9076
LeftArm  14.3854 20.2898 -36.9998
LeftForeArm  -7.43212 -38.5964 -9.37641
LeftHand  -0.246645 0.021 5.37786
RightShoulder  5.98805 12.3382 31.8638
RightArm  6.28035 -17.2014 34.9485
RightForeArm  7.449 24.2662 4.80482
RightHand  -0.24729 -0.0210522 -5.37781
LeftUpLeg  0.367036 13.898 15.5499
LeftLeg  13.7797 -1.63642 -0.291128
LeftFoot  -4.65359 0.559497 -9.08517
LeftToes  -7.45818e-011 -3.37383e-011 1.08613e-011
